# xmcd
#
# Track frame offsets:
#	150
#	14104
#	31768
#	48169
#	66524
#	81633
#	93606
#	110563
#	127431
#	145867
#	163343
#	177146
#
# Disc length: 2620 seconds
#
# Revision: 4
# Processed by: cddbd v1.4PL0 Copyright (c) Steve Scherf et al.
# Submitted via: CDmax 1.8
#
DISCID=b60a3a0c
DTITLE=Cary Pierce - You Are Here
DYEAR=1900
DGENRE=Blues
TTITLE0=The Best Thing
TTITLE1=All Quiet
TTITLE2=Greatest Thing In The World
TTITLE3=Tower
TTITLE4=TransAtlantic
TTITLE5=She's For Free
TTITLE6=Home
TTITLE7=Given The Time
TTITLE8=You're Mine Tonight
TTITLE9=King Of The World
TTITLE10=She's Gone, Move On
TTITLE11=(She's) Over Me
EXTD=
EXTT0=
EXTT1=
EXTT2=
EXTT3=
EXTT4=
EXTT5=
EXTT6=
EXTT7=
EXTT8=
EXTT9=
EXTT10=
EXTT11=
PLAYORDER=
